<!-- icon666.com - MILLIONS vector ICONS FREE --><svg id="Layer_1" enable-background="new 0 0 32 32" viewBox="0 0 32 32" xmlns="http://www.w3.org/2000/svg"><path d="m29 32h-26c-1.654 0-3-1.346-3-3v-15.264c0-.011 0-.022 0-.033v-10.703c0-1.654 1.346-3 3-3h26c1.654 0 3 1.346 3 3v11.841.047 14.112c0 1.654-1.346 3-3 3zm-27-17.721v14.721c0 .552.449 1 1 1h26c.551 0 1-.448 1-1v-12.73l-8.454 2.929c.069.06.136.116.199.171l2.862 2.464c.418.36.466.991.105 1.41-.36.418-.991.468-1.41.105l-2.862-2.464c-.828-.713-2.198-1.861-3.045-2.553l-8.432-6.884c-.523-.427-1.525-.494-2.101-.143zm5.776-5.197c.892 0 1.791.278 2.452.817l8.432 6.884c.315.257.702.577 1.107.915l10.233-3.546v-11.152c0-.552-.449-1-1-1h-26c-.551 0-1 .448-1 1v8.935l3.818-2.335c.569-.348 1.261-.518 1.958-.518zm12.94 3.827c-2.337 0-4.239-1.901-4.239-4.238 0-2.338 1.901-4.239 4.239-4.239 2.337 0 4.238 1.901 4.238 4.239.001 2.337-1.901 4.238-4.238 4.238zm0-6.477c-1.234 0-2.239 1.005-2.239 2.239s1.004 2.238 2.239 2.238 2.238-1.004 2.238-2.238-1.003-2.239-2.238-2.239z"></path></svg>