<!-- icon666.com - MILLIONS vector ICONS FREE --><svg id="Layer_1" enable-background="new 0 0 124 124" viewBox="0 0 124 124" xmlns="http://www.w3.org/2000/svg"><g id="XMLID_2932_"><g id="XMLID_285_"><g id="XMLID_188_"><path id="XMLID_384_" d="m115.046 59.054c-1.875 1.998-4.528 3.252-7.478 3.252-5.678 0-10.28-4.618-10.28-10.315 0-2.955 1.245-5.613 3.23-7.493-14.33-9.812-31.733-11.641-45.1-4.913-1.734-1.338-3.899-2.142-6.255-2.142-5.678 0-10.28 4.618-10.28 10.315 0 2.177.676 4.193 1.823 5.857-7.706 13.66-6.092 32.045 4.199 47.029-1.291 1.724-2.065 3.86-2.065 6.183 0 5.697 4.603 10.315 10.28 10.315 2.33 0 4.472-.787 6.197-2.098 17.869 12.265 40.535 12.118 54.185-1.579 13.658-13.708 13.795-36.475 1.544-54.411z" fill="#f3a26a"></path><path id="XMLID_620_" d="m63.381 111.993c-1.724 1.311-3.866 2.098-6.197 2.098-5.678 0-10.28-4.618-10.28-10.315 0-2.323.774-4.459 2.065-6.183-10.292-14.984-11.906-33.37-4.199-47.029-1.147-1.664-1.823-3.681-1.823-5.857 0-2.457.86-4.711 2.289-6.483-3.73 1.548-6.356 5.231-6.356 9.533 0 2.177.676 4.193 1.823 5.857-7.706 13.66-6.092 32.045 4.199 47.029-1.291 1.724-2.065 3.86-2.065 6.183 0 5.697 4.603 10.315 10.28 10.315 2.33 0 4.472-.787 6.197-2.098 17.101 11.737 38.59 12.098 52.371.103-13.703 8.778-32.805 7.485-48.304-3.153z" fill="#db5d31"></path><g id="XMLID_2062_"><ellipse id="XMLID_2065_" cx="79.937" cy="79.787" fill="#ef7348" rx="8.416" ry="8.133"></ellipse><path id="XMLID_2064_" d="m79.937 71.654c-1.274 0-2.476.281-3.558.771 2.867 1.297 4.858 4.102 4.858 7.363s-1.991 6.066-4.858 7.363c1.082.489 2.285.771 3.558.771 4.648 0 8.416-3.641 8.416-8.133 0-4.494-3.768-8.135-8.416-8.135z" fill="#db5d31"></path></g><g id="XMLID_2066_"><circle id="XMLID_2069_" cx="52.666" cy="74.423" fill="#ef7348" r="6.608"></circle><path id="XMLID_2068_" d="m52.666 67.814c-1 0-1.944.229-2.794.626 2.251 1.053 3.814 3.333 3.814 5.982s-1.563 4.929-3.814 5.982c.85.398 1.794.626 2.794.626 3.65 0 6.608-2.959 6.608-6.608.001-3.649-2.958-6.608-6.608-6.608z" fill="#db5d31"></path></g><g id="XMLID_2070_"><circle id="XMLID_2073_" cx="76.134" cy="52.517" fill="#ef7348" r="5.592"></circle><path id="XMLID_2072_" d="m76.134 46.925c-.846 0-1.645.193-2.364.53 1.905.891 3.228 2.82 3.228 5.062s-1.323 4.17-3.228 5.062c.719.336 1.518.53 2.364.53 3.088 0 5.592-2.503 5.592-5.592s-2.504-5.592-5.592-5.592z" fill="#db5d31"></path></g><g id="XMLID_2074_"><circle id="XMLID_2077_" cx="107.609" cy="88.524" fill="#ef7348" r="5.083"></circle><path id="XMLID_2076_" d="m107.609 83.44c-.769 0-1.496.176-2.149.482 1.732.81 2.934 2.563 2.934 4.602s-1.202 3.791-2.934 4.602c.654.306 1.38.482 2.149.482 2.807 0 5.083-2.276 5.083-5.083s-2.276-5.085-5.083-5.085z" fill="#db5d31"></path></g><g id="XMLID_276_"><circle id="XMLID_527_" cx="76.134" cy="108.947" fill="#ef7348" r="5.083"></circle><path id="XMLID_514_" d="m76.134 103.864c-.769 0-1.496.176-2.149.482 1.732.81 2.934 2.563 2.934 4.602 0 2.038-1.202 3.791-2.934 4.602.654.306 1.38.482 2.149.482 2.807 0 5.083-2.276 5.083-5.083 0-2.809-2.276-5.085-5.083-5.085z" fill="#db5d31"></path></g></g><g id="XMLID_259_"><path id="XMLID_383_" d="m32.13 34.072c-.511 0-1.022-.195-1.413-.584l-30.13-30.073c-.782-.78-.783-2.046-.002-2.829.78-.781 2.046-.783 2.829-.002l30.13 30.072c1.229 1.228.334 3.416-1.414 3.416z" fill="#f3a26a"></path><path id="XMLID_202_" d="m48.343 29.692c-.511 0-1.022-.195-1.413-.584l-16.213-16.183c-.782-.78-.783-2.046-.002-2.829.78-.781 2.046-.783 2.829-.002l16.213 16.182c1.228 1.228.334 3.416-1.414 3.416z" fill="#db5d31"></path><path id="XMLID_263_" d="m25.753 7.145c-.511 0-1.022-.195-1.413-.584l-3.151-3.145c-.782-.78-.783-2.047-.002-2.829.781-.781 2.047-.783 2.829-.002l3.151 3.145c1.229 1.227.334 3.415-1.414 3.415z" fill="#db5d31"></path><path id="XMLID_252_" d="m27.059 49.574c-.511 0-1.022-.195-1.413-.584l-4.457-4.449c-.782-.78-.783-2.047-.002-2.829.78-.781 2.046-.783 2.829-.002l4.457 4.449c1.228 1.226.334 3.415-1.414 3.415z" fill="#db5d31"></path><path id="XMLID_286_" d="m16.144 38.68c-.511 0-1.022-.195-1.413-.584l-14.144-14.118c-.782-.78-.783-2.046-.002-2.829.78-.781 2.046-.783 2.829-.002l14.144 14.117c1.229 1.227.334 3.416-1.414 3.416z" fill="#db5d31"></path><g fill="#f3a26a"><path id="XMLID_315_" d="m27.059 69.907c-.511 0-1.022-.195-1.413-.584l-4.457-4.449c-.782-.78-.783-2.047-.002-2.829.78-.781 2.046-.783 2.829-.002l4.457 4.449c1.228 1.226.334 3.415-1.414 3.415z"></path><path id="XMLID_386_" d="m16.144 59.013c-.511 0-1.022-.195-1.413-.584l-14.144-14.118c-.782-.78-.783-2.046-.002-2.829.781-.781 2.047-.783 2.829-.002l14.144 14.117c1.229 1.227.334 3.416-1.414 3.416z"></path><path id="XMLID_385_" d="m67.726 29.24c-.511 0-1.022-.195-1.413-.584l-4.458-4.449c-.782-.78-.783-2.046-.003-2.828s2.046-.783 2.828-.003l4.458 4.449c1.23 1.227.336 3.415-1.412 3.415z"></path><path id="XMLID_493_" d="m56.811 18.346c-.511 0-1.022-.195-1.413-.584l-14.145-14.117c-.782-.78-.783-2.046-.002-2.829.78-.781 2.046-.783 2.829-.002l14.144 14.117c1.229 1.227.335 3.415-1.413 3.415z"></path></g></g></g><g fill="#db5d31"><g id="XMLID_2919_"><path id="XMLID_492_" d="m17.065 102.315c-1.104 0-2-.896-2-2v-1.811c0-1.104.896-2 2-2s2 .896 2 2v1.811c0 1.104-.896 2-2 2z"></path><path id="XMLID_491_" d="m23.282 106.76h-1.799c-1.104 0-2-.896-2-2s.896-2 2-2h1.799c1.104 0 2 .896 2 2s-.895 2-2 2z"></path><path id="XMLID_488_" d="m17.065 113.016c-1.104 0-2-.896-2-2v-1.81c0-1.104.896-2 2-2s2 .896 2 2v1.81c0 1.105-.896 2-2 2z"></path><path id="XMLID_484_" d="m12.647 106.76h-1.799c-1.104 0-2-.896-2-2s.896-2 2-2h1.799c1.104 0 2 .896 2 2s-.896 2-2 2z"></path></g><g id="XMLID_2905_"><path id="XMLID_317_" d="m105.583 17.713c-1.104 0-2-.896-2-2v-1.811c0-1.104.896-2 2-2s2 .896 2 2v1.811c0 1.105-.896 2-2 2z"></path><path id="XMLID_316_" d="m111.8 22.159h-1.799c-1.104 0-2-.896-2-2s.896-2 2-2h1.799c1.104 0 2 .896 2 2s-.896 2-2 2z"></path><path id="XMLID_483_" d="m105.583 28.415c-1.104 0-2-.896-2-2v-1.81c0-1.104.896-2 2-2s2 .896 2 2v1.81c0 1.104-.896 2-2 2z"></path><path id="XMLID_486_" d="m101.165 22.159h-1.799c-1.104 0-2-.896-2-2s.896-2 2-2h1.799c1.104 0 2 .896 2 2s-.896 2-2 2z"></path></g></g></g></svg>