<!-- icon666.com - MILLIONS vector ICONS FREE --><svg viewBox="0 0 480 480.18185" xmlns="http://www.w3.org/2000/svg"><path d="m386.671875 426.351562c8.863281-4.226562 16.933594-9.945312 23.855469-16.90625 11.175781-11.171874 19.117187-25.160156 22.984375-40.480468.089843-.253906.160156-.511719.234375-.800782 5.753906-23.449218 1.617187-48.238281-11.441406-68.550781-3.382813-5.292969-7.332032-10.199219-11.777344-14.640625-6.808594-6.816406-14.691406-12.476562-23.328125-16.75l-374.429688-266.710937c-3.191406-2.300781-7.578125-1.941407-10.351562.84375-2.769531 2.789062-3.109375 7.175781-.792969 10.355469l268.617188 374.824218c21.816406 42.351563 73.417968 59.597656 116.316406 38.878906h.058594zm12.535156-28.21875c-3.953125 3.945313-8.359375 7.410157-13.125 10.320313-1.160156-1.652344-2.441406-3.210937-3.839843-4.664063-7.484376-7.523437-17.667969-11.746093-28.28125-11.71875-14.625-.070312-28.09375 7.925782-35.03125 20.800782-7.878907-3.488282-15.0625-8.371094-21.203126-14.417969l-13.796874-19.253906c-2.582032-5.152344-4.527344-10.597657-5.800782-16.21875 21.777344 3.148437 43.378906-6.761719 55.195313-25.320313 11.820312-18.558594 11.664062-42.324218-.394531-60.726562 15.644531-3.59375 32.050781-1.699219 46.460937 5.375l20.167969 14.402344c.671875.6875 1.273437 1.429687 1.921875 2.136718-17.546875 6.855469-27.894531 25.0625-24.800781 43.648438 3.09375 18.582031 18.777343 32.457031 37.601562 33.261718-3.554688 8.347657-8.671875 15.945313-15.074219 22.375zm-29.480469 17.679688c-1.980468.617188-4 1.152344-6.007812 1.601562-.796875.175782-1.597656.359376-2.398438.511719-2.691406.503907-5.410156.863281-8.144531 1.070313h-.121093c-2.765626.164062-5.542969.164062-8.308594 0-.800782-.039063-1.601563-.117188-2.449219-.183594-2.082031-.167969-4.144531-.421875-6.207031-.796875l-1.441406-.25c.710937-.960937 1.488281-1.871094 2.328124-2.71875 9.375-9.382813 24.578126-9.382813 33.953126 0l.246093.253906c-.480469.21875-.960937.359375-1.449219.511719zm-90.503906-88.839844c3.332032-11.605468 9.582032-22.164062 18.160156-30.664062 5.132813-5.109375 11-9.425782 17.410157-12.796875.710937-.371094 1.449219-.625 2.167969-.96875 10.917968 13.304687 12.050781 32.125 2.804687 46.644531s-26.777344 21.453125-43.453125 17.1875c.078125-6.570312 1.058594-13.097656 2.910156-19.402344zm139.867188 32.6875c-7.324219.957032-14.671875-1.550781-19.882813-6.78125-9.367187-9.375-9.367187-24.566406 0-33.9375 3.292969-3.292968 7.480469-5.546875 12.042969-6.480468 7.925781 14.375 10.695312 31.035156 7.839844 47.199218zm-72.175782-100.46875c-22.851562.378906-44.65625 9.636719-60.800781 25.804688-10.511719 10.398437-18.171875 23.324218-22.25 37.539062-2.265625 7.703125-3.460937 15.679688-3.550781 23.710938l-217.695312-303.832032zm0 0" fill="#000000"></path><path d="m381.726562 244.828125c1.785157 2.320313 4.691407 3.480469 7.578126 3.027344 2.890624-.453125 5.300781-2.445313 6.292968-5.195313.988282-2.753906.398438-5.824218-1.542968-8.015625l-107.476563-130.101562c-1.785156-2.320313-4.691406-3.480469-7.578125-3.027344-2.890625.453125-5.300781 2.445313-6.292969 5.199219-.988281 2.75-.398437 5.824218 1.542969 8.011718zm0 0" fill="#000000"></path><path d="m268.441406 165.453125c1.714844 2.363281 4.582032 3.605469 7.480469 3.238281 2.898437-.367187 5.367187-2.285156 6.4375-5.003906s.574219-5.804688-1.296875-8.050781l-39.589844-50.910157c-1.703125-2.394531-4.582031-3.65625-7.496094-3.296874-2.917968.359374-5.398437 2.289062-6.46875 5.023437-1.070312 2.734375-.554687 5.835937 1.339844 8.082031zm0 0" fill="#000000"></path><path d="m233.726562 368.695312-147.101562-90.511718c-3.738281-2.0625-8.429688-.828125-10.671875 2.804687-2.238281 3.628907-1.238281 8.378907 2.277344 10.792969l147.074219 90.535156c3.734374 2.0625 8.429687.828125 10.671874-2.804687 2.238282-3.628907 1.234376-8.378907-2.28125-10.792969zm0 0" fill="#000000"></path><path d="m162.03125 296.703125c3.339844 2.894531 8.398438 2.535156 11.292969-.804687 2.894531-3.339844 2.535156-8.394532-.804688-11.292969l-84.855469-73.535157c-2.152343-1.921874-5.171874-2.53125-7.902343-1.601562s-4.75 3.257812-5.285157 6.09375c-.53125 2.832031.5 5.734375 2.707032 7.59375zm0 0" fill="#000000"></path><path d="m280.410156 264.710938c3.234375 0 6.148438-1.949219 7.386719-4.941407 1.238281-2.988281.554687-6.429687-1.734375-8.714843l-45.246094-45.257813c-2.007812-2.078125-4.984375-2.914063-7.78125-2.179687-2.796875.730468-4.980468 2.914062-5.710937 5.710937-.734375 2.796875.101562 5.773437 2.179687 7.78125l45.25 45.257813c1.496094 1.503906 3.53125 2.347656 5.65625 2.34375zm0 0" fill="#000000"></path><path d="m184.25 194.484375c-3.125-3.125-8.191406-3.125-11.316406-.003906-3.128906 3.125-3.128906 8.191406-.003906 11.316406l39.597656 39.601563c3.140625 3.03125 8.128906 2.988281 11.214844-.097657 3.085937-3.085937 3.128906-8.074219.097656-11.214843zm0 0" fill="#000000"></path><path d="m200.128906 432.023438h-8v-8c0-4.417969-3.582031-8-8-8-4.417968 0-8 3.582031-8 8v8h-8c-4.417968 0-8 3.582031-8 8 0 4.417968 3.582032 8 8 8h8v8c0 4.417968 3.582032 8 8 8 4.417969 0 8-3.582032 8-8v-8h8c4.417969 0 8-3.582032 8-8 0-4.417969-3.582031-8-8-8zm0 0" fill="#000000"></path><path d="m440.128906 208.023438c13.253906 0 24-10.746094 24-24 0-13.257813-10.746094-24-24-24s-24 10.742187-24 24c0 13.253906 10.746094 24 24 24zm0-32c4.417969 0 8 3.582031 8 8 0 4.417968-3.582031 8-8 8-4.417968 0-8-3.582032-8-8 0-4.417969 3.582032-8 8-8zm0 0" fill="#000000"></path><path d="m479.710938 373.492188-16-48c-1.398438-4.195313-5.933594-6.464844-10.128907-5.066407-4.199219 1.398438-6.46875 5.933594-5.070312 10.132813l16 48c1.398437 4.195312 5.933593 6.464844 10.132812 5.066406 4.195313-1.398438 6.464844-5.933594 5.066407-10.132812zm0 0" fill="#000000"></path><path d="m362.945312 464.535156-64-24c-2.695312-1.074218-5.757812-.605468-8.007812 1.222656-2.25 1.828126-3.335938 4.730469-2.835938 7.585938s2.503907 5.21875 5.242188 6.175781l64 24c.902344.335938 1.855469.507813 2.816406.511719 3.875.007812 7.199219-2.757812 7.894532-6.570312.691406-3.8125-1.449219-7.574219-5.078126-8.925782zm0 0" fill="#000000"></path><path d="m443.703125 464.871094-32-16c-2.558594-1.304688-5.621094-1.136719-8.023437.441406-2.402344 1.578125-3.773438 4.320312-3.589844 7.1875.179687 2.867188 1.882812 5.417969 4.460937 6.683594l32 16c1.113281.539062 2.335938.8125 3.570313.796875 3.707031 0 6.929687-2.546875 7.785156-6.15625.851562-3.609375-.886719-7.332031-4.203125-8.996094zm0 0" fill="#000000"></path><path d="m446.785156 411.589844c-1.5625-2.433594-4.316406-3.835938-7.203125-3.667969-2.886719.171875-5.457031 1.882813-6.722656 4.484375-1.265625 2.597656-1.03125 5.679688.613281 8.054688l16 24c2.484375 3.589843 7.382813 4.527343 11.015625 2.105468 3.628907-2.421875 4.652344-7.304687 2.296875-10.976562zm0 0" fill="#000000"></path><path d="m306.472656 45.679688c3.125 3.121093 8.1875 3.121093 11.3125 0l2.34375-2.347657 2.34375 2.347657c3.136719 3.03125 8.128906 2.988281 11.214844-.097657 3.085938-3.085937 3.128906-8.078125.097656-11.214843l-2.34375-2.34375 2.34375-2.34375c2.078125-2.011719 2.914063-4.984376 2.179688-7.78125-.730469-2.796876-2.914063-4.980469-5.710938-5.714844-2.796875-.730469-5.773437.101562-7.78125 2.183594l-2.34375 2.34375-2.34375-2.34375c-3.140625-3.03125-8.128906-2.988282-11.214844.097656-3.085937 3.085937-3.128906 8.074218-.097656 11.214844l2.34375 2.34375-2.34375 2.34375c-3.125 3.121093-3.125 8.1875 0 11.3125zm0 0" fill="#000000"></path><path d="m40.128906 344.023438c-17.671875 0-32 14.324218-32 32 0 17.671874 14.328125 32 32 32s32-14.328126 32-32c0-17.675782-14.328125-32-32-32zm0 48c-8.835937 0-16-7.164063-16-16 0-8.839844 7.164063-16 16-16 8.835938 0 16 7.160156 16 16 0 8.835937-7.164062 16-16 16zm0 0" fill="#000000"></path><path d="m291.726562 403.941406-283.597656-395.769531 396.734375 282.632813zm0 0" fill="#fbb040" style="fill: rgb(152, 148, 175);"></path><path d="m291.726562 403.941406c-20.6875-20.652344-28.433593-50.960937-20.199218-79.007812 3.722656-12.902344 10.675781-24.644532 20.199218-34.113282 15-15.011718 35.347657-23.449218 56.570313-23.449218 21.21875 0 41.570313 8.4375 56.566406 23.449218 4.035157 4.03125 7.617188 8.484376 10.6875 13.289063 11.90625 18.460937 15.667969 41.019531 10.402344 62.34375l-.058594.058594c-3.433593 14.179687-10.714843 27.136719-21.039062 37.445312-6.292969 6.34375-13.640625 11.542969-21.710938 15.375-30.636719 14.882813-67.339843 8.703125-91.417969-15.390625zm0 0" fill="#2f3c4f" style="fill: rgb(242, 237, 234);"></path><g fill="#506f86"><path d="m376.578125 409.597656c2.789063 2.792969 5.019531 6.09375 6.566406 9.726563-18.695312 9.058593-40.179687 10.492187-59.914062 4 1.480469-5.191407 4.269531-9.917969 8.097656-13.726563 12.496094-12.492187 32.753906-12.492187 45.25 0zm0 0" fill="#506f86" style="fill: rgb(167, 162, 160);"></path><path d="m320.007812 273.828125c16.042969 16.089844 18.613282 41.222656 6.152344 60.21875-12.457031 19-36.53125 26.664063-57.679687 18.359375-1.992188-31.46875 14.683593-61.175781 42.59375-75.855469 2.589843-1.351562 5.261719-2.542969 8-3.570312.335937.253906.648437.539062.933593.847656zm0 0" fill="#506f86" style="fill: rgb(167, 162, 160);"></path><path d="m415.550781 304.09375c11.90625 18.460938 15.667969 41.015625 10.402344 62.34375l-.058594.054688c-11.976562 3.933593-25.144531.472656-33.636719-8.847657-8.492187-9.316406-10.71875-22.753906-5.691406-34.3125 5.027344-11.5625 16.371094-19.09375 28.976563-19.238281zm0 0" fill="#506f86" style="fill: rgb(167, 162, 160);"></path></g><path d="m456.128906 184.171875c0 8.839844-7.164062 16-16 16-8.835937 0-16-7.160156-16-16 0-8.835937 7.164063-16 16-16 8.835938 0 16 7.164063 16 16zm0 0" fill="#fbb040" style="fill: rgb(152, 148, 175);"></path><path d="m64.128906 376.171875c0 13.257813-10.746094 24-24 24s-24-10.742187-24-24c0-13.253906 10.746094-24 24-24s24 10.746094 24 24zm0 0" fill="#fbb040" style="fill: rgb(152, 148, 175);"></path><path d="m381.726562 244.980469c1.785157 2.320312 4.691407 3.480469 7.578126 3.027343 2.890624-.453124 5.300781-2.445312 6.292968-5.199218.988282-2.75.398438-5.820313-1.542968-8.011719l-107.476563-130.101563c-1.785156-2.320312-4.691406-3.480468-7.578125-3.027343-2.890625.453125-5.300781 2.445312-6.292969 5.195312-.988281 2.753907-.398437 5.824219 1.542969 8.015625zm0 0" fill="#000000"></path><path d="m268.441406 165.605469c1.714844 2.363281 4.582032 3.605469 7.480469 3.238281s5.367187-2.285156 6.4375-5.003906.574219-5.804688-1.296875-8.050782l-39.589844-50.910156c-1.714844-2.367187-4.585937-3.605468-7.484375-3.238281-2.894531.367187-5.363281 2.285156-6.433593 5.003906-1.070313 2.71875-.574219 5.804688 1.292968 8.050781zm0 0" fill="#000000"></path><path d="m233.726562 368.847656-147.101562-90.515625c-3.738281-2.058593-8.429688-.824219-10.671875 2.804688-2.238281 3.632812-1.238281 8.382812 2.277344 10.796875l147.074219 90.535156c3.734374 2.0625 8.429687.828125 10.671874-2.804688 2.238282-3.628906 1.234376-8.378906-2.28125-10.792968zm0 0" fill="#000000"></path><path d="m162.03125 296.847656c3.339844 2.894532 8.394531 2.535156 11.289062-.800781 2.894532-3.339844 2.539063-8.394531-.800781-11.289063l-84.855469-73.542968c-3.339843-2.894532-8.394531-2.535156-11.289062.808594-2.894531 3.339843-2.53125 8.390624.808594 11.285156zm0 0" fill="#000000"></path><path d="m280.410156 264.863281c3.234375-.003906 6.148438-1.953125 7.386719-4.941406s.554687-6.429687-1.734375-8.714844l-45.246094-45.257812c-2.007812-2.078125-4.984375-2.914063-7.78125-2.179688-2.796875.730469-4.980468 2.914063-5.710937 5.710938-.734375 2.796875.101562 5.773437 2.179687 7.78125l45.25 45.273437c1.496094 1.5 3.535156 2.335938 5.65625 2.328125zm0 0" fill="#000000"></path><path d="m184.25 194.636719c-3.125-3.125-8.191406-3.125-11.316406-.003907-3.128906 3.125-3.128906 8.191407-.003906 11.316407l39.597656 39.601562c3.140625 3.03125 8.128906 2.988281 11.214844-.097656 3.085937-3.085937 3.128906-8.078125.097656-11.214844zm0 0" fill="#000000"></path><path d="m200.128906 432.171875h-8v-8c0-4.417969-3.582031-8-8-8-4.417968 0-8 3.582031-8 8v8h-8c-4.417968 0-8 3.582031-8 8 0 4.421875 3.582032 8 8 8h8v8c0 4.421875 3.582032 8 8 8 4.417969 0 8-3.578125 8-8v-8h8c4.417969 0 8-3.578125 8-8 0-4.417969-3.582031-8-8-8zm0 0" fill="#000000"></path><path d="m440.128906 208.171875c13.253906 0 24-10.742187 24-24 0-13.253906-10.746094-24-24-24s-24 10.746094-24 24c0 13.257813 10.746094 24 24 24zm0-32c4.417969 0 8 3.582031 8 8 0 4.421875-3.582031 8-8 8-4.417968 0-8-3.578125-8-8 0-4.417969 3.582032-8 8-8zm0 0" fill="#000000"></path><path d="m479.710938 373.644531-16-48c-1.398438-4.195312-5.933594-6.464843-10.128907-5.066406-4.199219 1.398437-6.46875 5.933594-5.070312 10.132813l16 48c1.398437 4.195312 5.933593 6.464843 10.132812 5.066406 4.195313-1.398438 6.464844-5.933594 5.066407-10.132813zm0 0" fill="#000000"></path><path d="m362.945312 464.6875-64-24c-2.695312-1.074219-5.757812-.609375-8.007812 1.222656-2.25 1.828125-3.335938 4.730469-2.835938 7.585938.5 2.855468 2.503907 5.21875 5.242188 6.171875l64 24c.902344.335937 1.855469.511719 2.816406.515625 3.875.007812 7.199219-2.757813 7.894532-6.570313.691406-3.8125-1.449219-7.574219-5.078126-8.925781zm0 0" fill="#000000"></path><path d="m443.703125 465.023438-32-16c-2.558594-1.304688-5.621094-1.136719-8.023437.441406-2.402344 1.574218-3.773438 4.320312-3.589844 7.1875.179687 2.867187 1.882812 5.417968 4.460937 6.679687l32 16c1.109375.558594 2.332031.84375 3.570313.839844 3.707031 0 6.929687-2.546875 7.785156-6.15625.851562-3.609375-.886719-7.332031-4.203125-8.992187zm0 0" fill="#000000"></path><path d="m446.785156 411.742188c-1.5625-2.433594-4.316406-3.835938-7.203125-3.667969s-5.457031 1.882812-6.722656 4.480469c-1.265625 2.601562-1.03125 5.679687.613281 8.058593l16 24c2.484375 3.589844 7.382813 4.523438 11.015625 2.105469 3.628907-2.421875 4.652344-7.304688 2.296875-10.976562zm0 0" fill="#000000"></path><path d="m306.472656 45.828125c3.125 3.125 8.1875 3.125 11.3125 0l2.34375-2.34375 2.34375 2.34375c3.152344 2.910156 8.039063 2.8125 11.074219-.21875s3.140625-7.917969.238281-11.074219l-2.34375-2.34375 2.34375-2.34375c2.078125-2.011718 2.914063-4.984375 2.179688-7.78125-.730469-2.796875-2.914063-4.980468-5.710938-5.714844-2.796875-.730468-5.773437.101563-7.78125 2.183594l-2.34375 2.328125-2.34375-2.328125c-3.140625-3.03125-8.128906-2.988281-11.214844.097656-3.085937 3.085938-3.128906 8.074219-.097656 11.214844l2.34375 2.34375-2.34375 2.34375c-3.113281 3.121094-3.113281 8.171875 0 11.292969zm0 0" fill="#000000"></path><path d="m40.128906 344.171875c-17.671875 0-32 14.328125-32 32 0 17.675781 14.328125 32 32 32s32-14.324219 32-32c0-17.671875-14.328125-32-32-32zm0 48c-8.835937 0-16-7.160156-16-16 0-8.835937 7.164063-16 16-16 8.835938 0 16 7.164063 16 16 0 8.839844-7.164062 16-16 16zm0 0" fill="#000000"></path><path d="m386.671875 426.535156c8.867187-4.234375 16.9375-9.964844 23.855469-16.9375 11.175781-11.171875 19.117187-25.160156 22.984375-40.480468.089843-.253907.160156-.511719.234375-.800782 9.828125-40.105468-9.523438-81.65625-46.546875-99.941406l-374.429688-266.714844c-3.191406-2.296875-7.578125-1.9375-10.351562.847656-2.769531 2.789063-3.109375 7.175782-.792969 10.355469l268.617188 374.832031c21.832031 42.316407 73.402343 59.539063 116.285156 38.839844zm12.535156-28.21875c-3.953125 3.945313-8.359375 7.410156-13.125 10.320313-1.160156-1.652344-2.441406-3.210938-3.839843-4.664063-8.875-8.960937-21.472657-13.1875-33.953126-11.394531-12.484374 1.796875-23.378906 9.402344-29.367187 20.5-7.875-3.480469-15.046875-8.359375-21.175781-14.398437l-13.800782-19.347657c-2.582031-5.148437-4.53125-10.59375-5.800781-16.214843 21.769531 3.136718 43.355469-6.773438 55.167969-25.328126 11.816406-18.550781 11.664062-42.304687-.382812-60.703124 15.644531-3.597657 32.050781-1.699219 46.460937 5.375l20.175781 14.402343c.675782.679688 1.273438 1.421875 1.914063 2.125-17.546875 6.855469-27.894531 25.066407-24.800781 43.648438 3.09375 18.585937 18.777343 32.460937 37.601562 33.265625-3.554688 8.351562-8.671875 15.949218-15.074219 22.382812zm-29.480469 17.648438c-1.980468.617187-4 1.152344-6.015624 1.601562-.796876.175782-1.597657.359375-2.398438.511719-2.71875.511719-5.460938.871094-8.214844 1.078125-2.78125.164062-5.566406.164062-8.34375 0-.800781-.039062-1.601562-.109375-2.402344-.183594-2.078124-.164062-4.148437-.429687-6.207031-.800781l-1.472656-.253906c.71875-.957031 1.5-1.867188 2.335937-2.71875 9.5-9.070313 24.453126-9.070313 33.953126 0l.246093.253906c-.511719.214844-.992187.359375-1.480469.511719zm-90.511718-88.800782c3.328125-11.609374 9.582031-22.171874 18.160156-30.671874 5.128906-5.113282 10.996094-9.429688 17.410156-12.796876.710938-.378906 1.445313-.632812 2.167969-.976562 10.902344 13.304688 12.027344 32.109375 2.785156 46.621094-9.238281 14.511718-26.757812 21.445312-43.425781 17.195312.074219-6.570312 1.054688-13.097656 2.910156-19.402344zm139.875 32.648438c-7.324219.957031-14.671875-1.550781-19.882813-6.78125-9.367187-9.375-9.367187-24.566406 0-33.9375 3.292969-3.292969 7.480469-5.546875 12.042969-6.480469 7.925781 14.375 10.691406 31.035157 7.839844 47.199219zm-72.175782-100.480469c-22.847656.386719-44.648437 9.640625-60.800781 25.800781-10.492187 10.398438-18.136719 23.316407-22.210937 37.511719-2.265625 7.703125-3.460938 15.683594-3.550782 23.714844l-217.734374-303.824219zm0 0" fill="#000000"></path></svg>