<!-- icon666.com - MILLIONS vector ICONS FREE --><svg id="Layer_1" viewBox="0 0 128 128" xmlns="http://www.w3.org/2000/svg" data-name="Layer 1"><path d="m110.508 51.846a28.323 28.323 0 0 1 -11.808 3.88s17.647-18.69 22.8-49.226c-30.536 5.153-49.226 22.8-49.226 22.8a28.323 28.323 0 0 1 3.88-11.809c-8.196 4.109-23.254 16.376-37.236 30.495a40.288 40.288 0 0 1 2.715-12.253c-9.666 4.956-34.433 46.635-35.033 60.921-.653 7.479 1.8 13.984 6.279 18.463s10.984 6.932 18.463 6.279c14.286-.6 55.965-25.363 60.921-35.029a40.288 40.288 0 0 1 -12.253 2.715c14.123-13.982 26.39-29.04 30.498-37.236z" fill="#d75a4a" style="fill: rgb(231, 223, 4);"></path><circle cx="30.989" cy="97.011" fill="#e8e8e8" r="14.872" style="fill: rgb(240, 148, 20);"></circle><g fill="#2d1d40"><path d="m21.04 85.819a1.752 1.752 0 0 0 -2.471.145 16.571 16.571 0 1 0 8.569-5.126 1.75 1.75 0 0 0 .808 3.406 13.13 13.13 0 1 1 -6.761 4.046 1.75 1.75 0 0 0 -.145-2.471z" fill="#2d1d40"></path><path d="m122.737 5.263a1.75 1.75 0 0 0 -1.528-.489 105.834 105.834 0 0 0 -46.366 20.1 28.566 28.566 0 0 1 2.791-6.443 1.75 1.75 0 0 0 -2.263-2.5c-7.781 3.893-21.135 14.605-34.116 27.269a42.878 42.878 0 0 1 2-6.807 1.751 1.751 0 0 0 -2.419-2.22c-10.836 5.561-35.386 48.137-35.975 62.327-.676 7.751 1.733 14.8 6.785 19.853a24.027 24.027 0 0 0 17.269 6.9q1.239 0 2.505-.111c14.27-.592 56.846-25.142 62.405-35.976a1.75 1.75 0 0 0 -2.225-2.418 42.648 42.648 0 0 1 -6.808 2c12.666-12.981 23.38-26.337 27.276-34.118a1.75 1.75 0 0 0 -2.5-2.263 28.23 28.23 0 0 1 -6.469 2.8 96.5 96.5 0 0 0 5.742-8.345 1.751 1.751 0 0 0 -2.981-1.836 78.465 78.465 0 0 1 -8.439 11.538 1.756 1.756 0 0 0 -.312 1.943 1.732 1.732 0 0 0 1.69 1.006 26.052 26.052 0 0 0 7.314-1.614c-5.562 8.475-16 20.75-27.336 31.98a1.749 1.749 0 0 0 1.275 2.992 34.1 34.1 0 0 0 7.081-1.019c-11.334 10.666-43.775 29.332-55.944 29.84-6.7.586-12.766-1.464-17.074-5.772s-6.352-10.372-5.762-17.153c.5-12.1 19.169-44.532 29.835-55.865a34.1 34.1 0 0 0 -1.019 7.081 1.749 1.749 0 0 0 2.992 1.275c11.23-11.336 23.5-21.774 31.98-27.336a26.052 26.052 0 0 0 -1.614 7.318 1.75 1.75 0 0 0 2.948 1.378c.178-.168 17.678-16.4 45.851-21.9a101.907 101.907 0 0 1 -5.743 19.135 1.75 1.75 0 0 0 3.238 1.328 105.157 105.157 0 0 0 6.405-22.346 1.748 1.748 0 0 0 -.489-1.532z" fill="#2d1d40"></path><path d="m113.042 33.417a1.753 1.753 0 0 0 -2.342.8q-.754 1.539-1.517 2.971a1.75 1.75 0 1 0 3.091 1.643q.786-1.48 1.569-3.073a1.751 1.751 0 0 0 -.801-2.341z" fill="#2d1d40"></path><path d="m109.917 25.584a1.751 1.751 0 0 0 -2.293.932 91.057 91.057 0 0 1 -14.056 23.322 1.75 1.75 0 0 0 2.647 2.291 94.743 94.743 0 0 0 14.634-24.252 1.75 1.75 0 0 0 -.932-2.293z" fill="#2d1d40"></path></g></svg>