<!-- icon666.com - MILLIONS vector ICONS FREE --><svg viewBox="0 -46 512 512" xmlns="http://www.w3.org/2000/svg"><path d="m505.027344 120-58.757813-86.632812-71.355469-33.367188-86.941406 55.761719 64.238282 94.238281zm0 0" fill="#61729b"></path><path d="m352.300781 120-96.300781 57.300781-2.101562 1.199219-186.398438-61.800781 27-54 101.5-33.601563 60 17.402344 32.101562 9.300781zm0 0" fill="#47568c"></path><path d="m352.300781 120-96.300781 57.300781v-130.800781l32.101562 9.300781zm0 0" fill="#2c3b73"></path><path d="m352.300781 120-96.300781 57.300781v-130.800781l32.101562 9.300781zm0 0" fill="#2c3b73"></path><path d="m512 130.5v79.5l-86.800781 77.398438-26.097657 77.699218-95.101562 46.800782-22.199219-21.898438-7.800781 26.101562-18-5.101562-188.800781-52.5-54-54.300781 10.203125-21.601563-23.402344-5.699218v-88.199219l47.101562-47.101563 20.398438-24.898437 156.398438 31.800781 32.101562-7.199219 96.300781-21.300781h152.800781zm0 0" fill="#61729b"></path><path d="m512 130.5v79.5l-86.800781 77.398438-26.097657 77.699218-95.101562 46.800782-22.199219-21.898438-7.800781 26.101562-18-5.101562v-269.699219l96.300781-21.300781h152.800781zm0 0" fill="#47568c"></path><path d="m304 411.898438-16.5 8.101562-13.5-3.898438-18-53.703124-10.800781-32.398438h-49.199219v-30h70.800781zm0 0" fill="#47568c"></path><path d="m379.28125 210-19.175781 76.742188 39.132812 78.277343 16.632813-8.183593 7.691406-10.25 80.933594-106.585938 7.503906-10.003906v-19.996094zm0 0" fill="#2c3b73"></path><path d="m96.679688 212.519531-96.679688 64.453125v14.238282l13.089844 13.089843 100.230468-66.820312zm0 0" fill="#47568c"></path><path d="m266.800781 300 37.199219 111.898438-16.5 8.101562-13.5-3.898438-18-53.703124v-62.398438zm0 0" fill="#2c3b73"></path></svg>