<!-- icon666.com - MILLIONS vector ICONS FREE --><svg id="Capa_1" enable-background="new 0 0 512 512" viewBox="0 0 512 512" xmlns="http://www.w3.org/2000/svg"><g><g><g><circle cx="256" cy="256" fill="#654baa" r="256"></circle><g><g><path d="m512 256c0 65.237-24.405 124.779-64.576 169.984-13.472 15.168-28.725 28.715-45.419 40.331-41.418 28.8-91.733 45.685-146.005 45.685-48.853 0-94.496-13.685-133.323-37.419-4.32-2.635 2.895-19.919-1.243-22.799-2.357-1.643-4.693-3.328-6.987-5.045-3.691-2.752-18.746 8.932-22.277 5.967-9.856-8.192-19.083-17.131-27.595-26.72-40.17-45.205-64.575-104.747-64.575-169.984 0-46.219 12.245-89.568 33.675-126.997 15.275 26.656 35.2 50.315 58.667 69.856 44.373 36.928 101.429 59.147 163.659 59.147 17.803 0 35.189-1.824 51.979-5.28 72.907-15.04 134.486-61.077 170.347-123.723 21.428 37.429 33.673 80.778 33.673 126.997z" fill="#513390"></path></g></g></g><g><g><path d="m388.053 367.243-127.274 123.498-138.101-16.16c-4.32-2.635-8.544-5.387-12.683-8.267-2.357-1.643-4.693-3.328-6.987-5.045-3.691-2.752-7.307-5.6-10.837-8.565l-44.598-177.749 44.768-76.096 34.795-59.147 76.363 14.315 6.368 59.296 98.112 39.403 35.531 14.261z" fill="#99989b"></path><path d="m260.779 490.741-138.101-16.16c-4.32-2.635-8.544-5.387-12.683-8.267-2.357-1.643-4.693-3.328-6.987-5.045l40.203-67.691h105.152z" fill="#aeadb2"></path><path d="m248.359 393.576 47.13-60.402-131.811-72.989-54.136 72.989 33.672 60.402z" fill="#c8c6cb"></path><path d="m295.489 333.174 92.575 34.061-127.287 123.507-12.418-97.166z" fill="#dddddf"></path><path d="m295.489 333.174 48.024-66.177 44.551 100.238z" fill="#99989b"></path><path d="m343.509 266.991-48.025 66.188-131.8-72.997 46.179-46.862z" fill="#dddddf"></path><path d="m47.577 274.952 61.965 58.222 54.142-72.992-36.553-120.471z" fill="#aeadb2"></path></g><g><path d="m174.965 89.547c0 13.291-10.784 24.075-24.085 24.075s-24.075-10.784-24.075-24.075c0-13.301 10.773-24.085 24.075-24.085 13.301-.001 24.085 10.783 24.085 24.085z" fill="#fff"></path><path d="m174.965 89.547c0 13.291-10.784 24.075-24.085 24.075v-48.16c13.301-.001 24.085 10.783 24.085 24.085z" fill="#dddddf"></path></g><g><path d="m473.1 317.125c0 18.767-15.227 33.994-34.009 33.994s-33.994-15.228-33.994-33.994c0-18.782 15.212-34.009 33.994-34.009 18.781 0 34.009 15.227 34.009 34.009z" fill="#fff"></path><path d="m473.1 317.125c0 18.767-15.227 33.994-34.009 33.994v-68.004c18.781.001 34.009 15.228 34.009 34.01z" fill="#dddddf"></path></g><g><path d="m319.14 159.736c0 9.396-7.624 17.02-17.027 17.02-9.404 0-17.02-7.624-17.02-17.02 0-9.404 7.616-17.027 17.02-17.027 9.403 0 17.027 7.624 17.027 17.027z" fill="#fff"></path><path d="m319.14 159.736c0 9.396-7.624 17.02-17.027 17.02v-34.047c9.403 0 17.027 7.624 17.027 17.027z" fill="#dddddf"></path></g><g fill="#fff"><path d="m289.032 58.591c-1.365 0-2.729-.521-3.771-1.562-2.083-2.083-2.083-5.459-.001-7.543l7.914-7.914c2.083-2.082 5.459-2.082 7.543 0 2.083 2.083 2.083 5.459.001 7.543l-7.914 7.914c-1.042 1.041-2.407 1.562-3.772 1.562z"></path><path d="m239.247 108.375c-1.365 0-2.73-.521-3.771-1.562-2.083-2.083-2.083-5.46 0-7.543l27.37-27.369c2.081-2.082 5.46-2.082 7.542 0 2.083 2.083 2.083 5.46 0 7.543l-27.369 27.369c-1.042 1.041-2.407 1.562-3.772 1.562z"></path><path d="m210.462 137.16c-1.365 0-2.73-.521-3.771-1.562-2.083-2.083-2.083-5.459 0-7.543l9.103-9.103c2.082-2.082 5.459-2.082 7.543 0 2.083 2.083 2.083 5.459 0 7.543l-9.103 9.103c-1.041 1.042-2.406 1.562-3.772 1.562z"></path><path d="m178.837 168.786c-1.365 0-2.73-.521-3.771-1.562-2.083-2.083-2.083-5.46 0-7.543l20.354-20.354c2.083-2.082 5.459-2.082 7.543 0 2.083 2.083 2.083 5.46 0 7.543l-20.354 20.354c-1.042 1.041-2.407 1.562-3.772 1.562z"></path><path d="m279.424 263.693c-1.365 0-2.73-.521-3.771-1.562-2.083-2.083-2.083-5.46 0-7.543l44.843-44.842c2.081-2.082 5.46-2.082 7.542 0 2.083 2.083 2.083 5.46 0 7.543l-44.843 44.842c-1.041 1.041-2.407 1.562-3.771 1.562z"></path><path d="m416.329 253.015c-1.365 0-2.73-.521-3.771-1.562-2.083-2.083-2.083-5.46 0-7.543l28.463-28.463c2.081-2.082 5.46-2.082 7.542 0 2.083 2.083 2.083 5.46 0 7.543l-28.463 28.463c-1.041 1.041-2.406 1.562-3.771 1.562z"></path><path d="m368.866 300.479c-1.365 0-2.73-.521-3.771-1.562-2.083-2.083-2.083-5.46 0-7.543l34.959-34.96c2.081-2.082 5.46-2.082 7.542 0 2.083 2.083 2.083 5.46 0 7.543l-34.959 34.96c-1.041 1.041-2.407 1.562-3.771 1.562z"></path><path d="m343.509 325.834c-1.365 0-2.73-.521-3.771-1.562-2.083-2.083-2.083-5.46 0-7.543l10.507-10.507c2.081-2.082 5.46-2.082 7.542 0 2.083 2.083 2.083 5.46 0 7.543l-10.507 10.507c-1.04 1.042-2.406 1.562-3.771 1.562z"></path><path d="m83.946 163.411c-1.365 0-2.73-.521-3.771-1.562-2.083-2.083-2.083-5.46 0-7.543l34.96-34.96c2.083-2.082 5.459-2.082 7.543 0 2.083 2.083 2.083 5.46 0 7.543l-34.96 34.96c-1.042 1.041-2.407 1.562-3.772 1.562z"></path><path d="m58.59 188.767c-1.365 0-2.73-.521-3.771-1.562-2.083-2.083-2.083-5.46 0-7.543l10.507-10.507c2.083-2.082 5.459-2.082 7.543 0 2.083 2.083 2.083 5.46 0 7.543l-10.507 10.507c-1.042 1.041-2.407 1.562-3.772 1.562z"></path><path d="m341.929 200.48c-1.365 0-2.73-.521-3.771-1.562-2.083-2.083-2.083-5.46 0-7.543l16.419-16.419c2.081-2.082 5.46-2.082 7.542 0 2.083 2.083 2.083 5.46 0 7.543l-16.419 16.419c-1.041 1.041-2.406 1.562-3.771 1.562z"></path><path d="m376.186 94.69c-1.365 0-2.73-.521-3.771-1.562-2.083-2.083-2.083-5.46 0-7.543l19.161-19.161c2.081-2.082 5.46-2.082 7.542 0 2.083 2.083 2.083 5.46 0 7.543l-19.161 19.161c-1.04 1.041-2.406 1.562-3.771 1.562z"></path><path d="m343.509 127.367c-1.365 0-2.73-.521-3.771-1.562-2.083-2.083-2.083-5.46 0-7.543l18.992-18.992c2.081-2.082 5.46-2.082 7.542 0 2.083 2.083 2.083 5.46 0 7.543l-18.992 18.992c-1.04 1.041-2.406 1.562-3.771 1.562z"></path><path d="m410.356 391.09c-1.365 0-2.729-.52-3.771-1.562-2.083-2.083-2.083-5.459-.001-7.542l5.259-5.26c2.083-2.083 5.459-2.084 7.543-.001 2.083 2.083 2.083 5.459.001 7.542l-5.259 5.26c-1.042 1.042-2.407 1.563-3.772 1.563z"></path><path d="m368.866 432.58c-1.365 0-2.73-.521-3.771-1.562-2.083-2.083-2.083-5.46 0-7.543l26.482-26.483c2.081-2.082 5.46-2.082 7.542 0 2.083 2.083 2.083 5.46 0 7.543l-26.482 26.483c-1.041 1.041-2.407 1.562-3.771 1.562z"></path><path d="m343.509 457.937c-1.365 0-2.73-.521-3.771-1.562-2.083-2.083-2.083-5.46 0-7.543l10.507-10.507c2.081-2.082 5.46-2.082 7.542 0 2.083 2.083 2.083 5.46 0 7.543l-10.507 10.507c-1.04 1.041-2.406 1.562-3.771 1.562z"></path></g></g></g><g><path d="m420.354 163.52c0 12.012-9.747 21.759-21.768 21.759-12.022 0-21.759-9.747-21.759-21.759 0-12.022 9.737-21.769 21.759-21.769 12.021 0 21.768 9.747 21.768 21.769z" fill="#fff"></path><path d="m420.354 163.52c0 12.012-9.747 21.759-21.768 21.759v-43.527c12.021-.001 21.768 9.746 21.768 21.768z" fill="#dddddf"></path></g></g></svg>