<!-- icon666.com - MILLIONS vector ICONS FREE --><svg id="Capa_1" enable-background="new 0 0 512 512" viewBox="0 0 512 512" xmlns="http://www.w3.org/2000/svg"><g><g><path d="m256 0c-66.134 0-126.409 25.081-171.838 66.246l-82.976 214.399c12.403 129.821 121.744 231.355 254.814 231.355 141.385 0 256-114.615 256-256s-114.615-256-256-256z" fill="#fc5d1f"></path></g><g><path d="m467.485 283.616-28.731-103.64c-4.481-16.166-16.771-29.007-32.726-34.194l-119.815-38.948c-5.109-1.661-9.917-4.134-14.239-7.325l-45.642-33.695c-9.875-7.29-22.086-10.693-34.309-9.561l-107.861 9.993c-51.691 46.84-84.162 114.504-84.162 189.754 0 8.315.411 16.533 1.186 24.646l36.87 14.24c13.983 5.401 24.806 16.79 29.486 31.031l12.375 37.653c5.074 15.44 17.337 27.45 32.878 32.203l189.66 58c18.232 5.575 38.047.297 51.09-13.608l102.225-108.985c11.936-12.726 16.376-30.752 11.715-47.564z" fill="#1d319b"></path></g><g><path d="m162 182.574c0-46.84 14.319-90.334 38.81-126.353-2.907-.244-5.846-.24-8.786.032l-107.862 9.993c-51.691 46.84-84.162 114.504-84.162 189.754 0 8.315.411 16.533 1.186 24.646l36.87 14.24c13.983 5.401 24.806 16.79 29.486 31.031l12.375 37.653c5.074 15.44 17.337 27.45 32.878 32.203l189.66 58c18.232 5.575 38.047.297 51.09-13.608l30.602-32.626c-122.947-1.53-222.147-101.654-222.147-224.965z" fill="#162680"></path></g><g><path d="m330.663 34.064 52.467-16.615c4.387-1.389 9.12-1.223 13.399.471l61.485 24.337c4.926 1.95 8.877 5.774 10.986 10.634l14.594 33.63c2.594 5.978-1.131 12.8-7.562 13.85l-65.152 10.637c-3.891.635-7.883.106-11.474-1.52l-74.461-33.726c-4.238-1.92-6.592-6.508-5.68-11.07l4.611-23.054c.715-3.574 3.315-6.474 6.787-7.574z" fill="#1d319b"></path></g><g><path d="m374.945 75.761c-4.238-1.92-6.592-6.508-5.68-11.07l4.611-23.054c.714-3.572 3.314-6.472 6.787-7.572l31.473-9.967-15.607-6.178c-4.279-1.694-9.011-1.86-13.399-.471l-52.467 16.615c-3.473 1.1-6.072 4-6.787 7.572l-4.611 23.054c-.912 4.562 1.442 9.151 5.68 11.07l74.461 33.726c3.591 1.627 7.583 2.156 11.474 1.52l30.785-5.026z" fill="#162680"></path></g><g><circle cx="303.336" cy="366.263" fill="#162680" r="40"></circle></g><g><circle cx="142.473" cy="337.263" fill="#1d319b" r="20"></circle></g><g><circle cx="401.749" cy="281" fill="#162680" r="20"></circle></g><g><circle cx="226" cy="130.984" fill="#162680" r="20"></circle></g><g><circle cx="303.336" cy="180.984" fill="#162680" r="30"></circle></g><g><circle cx="92.473" cy="152.68" fill="#1d319b" r="30"></circle></g><g><circle cx="441.666" cy="63.892" fill="#162680" r="15"></circle></g><g><circle cx="343.336" cy="56.041" fill="#1d319b" r="10"></circle></g></g></svg>