<?xml version="1.0"?>
<svg width="1024" height="1024" xmlns="http://www.w3.org/2000/svg" xmlns:svg="http://www.w3.org/2000/svg" preserveAspectRatio="xMidYMid meet" version="1.0">
 <g class="layer">
  <title>Layer 1</title>
  <g fill="#000000" id="svg_1" transform="matrix(0.1 0 0 -0.1 0 0)">
   <path d="m4850,-6c-389,-26 -690,-72 -1005,-154c-646,-167 -1267,-465 -1790,-858c-845,-634 -1469,-1508 -1801,-2518c-401,-1224 -322,-2564 222,-3734c353,-761 900,-1435 1572,-1939c845,-634 1874,-1000 2887,-1028c484,-13 997,45 1485,167c1081,270 2106,961 2800,1885c855,1139 1193,2584 934,3995c-361,1965 -1833,3539 -3767,4029c-432,110 -870,163 -1307,159c-102,-1 -205,-3 -230,-4zm790,-948c262,-30 482,-81 805,-186c457,-150 754,-302 1120,-575c359,-268 710,-609 924,-898c172,-232 429,-703 567,-1038c89,-217 178,-552 208,-784c27,-206 41,-726 28,-1043c-13,-313 -33,-435 -116,-723c-75,-258 -206,-622 -270,-747l-23,-46l-25,40c-13,21 -291,483 -618,1027l-593,987l-2189,0l-2188,0l0,-597c0,-329 -3,-1040 -7,-1580l-6,-983l-548,0l-548,0l-122,133c-291,316 -513,643 -690,1012c-207,435 -346,899 -394,1320c-22,193 -31,650 -16,855c24,338 85,636 201,980c373,1115 1164,2002 2220,2491c458,211 935,336 1425,373c119,9 737,-4 855,-18z" fill="#fff003" id="svg_2"/>
  </g>
 </g>
</svg>