<?xml version="1.0" standalone="no"?>
<!DOCTYPE svg PUBLIC "-//W3C//DTD SVG 20010904//EN"
 "http://www.w3.org/TR/2001/REC-SVG-20010904/DTD/svg10.dtd">
<svg version="1.0" xmlns="http://www.w3.org/2000/svg"
 width="32.000000pt" height="32.000000pt" viewBox="0 0 32.000000 32.000000"
 preserveAspectRatio="xMidYMid meet">

<g transform="translate(0.000000,32.000000) scale(0.100000,-0.100000)"
fill="#000000" stroke="none">
<path d="M0 310 c0 -5 5 -10 10 -10 6 0 10 5 10 10 0 6 -4 10 -10 10 -5 0 -10
-4 -10 -10z"/>
<path d="M130 313 c1 -5 21 -28 45 -53 45 -45 48 -60 14 -60 -10 0 -19 -4 -19
-10 0 -5 16 -10 36 -10 47 0 69 -13 84 -49 25 -61 -40 -126 -101 -101 -16 7
-34 21 -39 31 -13 23 -13 76 0 84 6 3 10 -3 10 -15 0 -25 29 -38 41 -19 6 10
-15 38 -78 101 -48 48 -91 84 -96 81 -5 -3 16 -31 48 -63 50 -51 55 -60 49
-86 -11 -47 -14 -48 -54 -9 -21 20 -40 33 -43 28 -3 -5 27 -42 67 -82 61 -61
80 -73 114 -78 38 -5 45 -2 78 31 33 33 36 40 31 78 -5 36 -17 54 -89 125 -78
77 -99 93 -98 76z"/>
<path d="M260 290 c-13 -13 -13 -17 0 -30 13 -13 17 -13 30 0 13 13 13 17 0
30 -13 13 -17 13 -30 0z"/>
<path d="M0 180 c0 -5 5 -10 10 -10 6 0 10 5 10 10 0 6 -4 10 -10 10 -5 0 -10
-4 -10 -10z"/>
<path d="M245 140 c-3 -5 -1 -10 4 -10 6 0 11 5 11 10 0 6 -2 10 -4 10 -3 0
-8 -4 -11 -10z"/>
<path d="M232 68 c6 -18 28 -21 28 -4 0 9 -7 16 -16 16 -9 0 -14 -5 -12 -12z"/>
<path d="M36 51 c-4 -5 -2 -12 3 -15 5 -4 12 -2 15 3 4 5 2 12 -3 15 -5 4 -12
2 -15 -3z"/>
</g>
</svg>
